Coordinates
version=1
nRows=13
nColumns=40
inDegrees=yes

Units are S.I. units (second, meters, Newtons, ...)
Angles are in degrees.

endheader
time	pelvis_tilt	pelvis_list	pelvis_rotation	pelvis_tx	pelvis_ty	pelvis_tz	hip_flexion_r	hip_adduction_r	hip_rotation_r	knee_angle_r	knee_angle_r_beta	ankle_angle_r	subtalar_angle_r	mtp_angle_r	hip_flexion_l	hip_adduction_l	hip_rotation_l	knee_angle_l	knee_angle_l_beta	ankle_angle_l	subtalar_angle_l	mtp_angle_l	lumbar_extension	lumbar_bending	lumbar_rotation	arm_flex_r	arm_add_r	arm_rot_r	elbow_flex_r	pro_sup_r	wrist_flex_r	wrist_dev_r	arm_flex_l	arm_add_l	arm_rot_l	elbow_flex_l	pro_sup_l	wrist_flex_l	wrist_dev_l
     33.46000000	     -1.75163217	     -4.18018292	      2.28414346	      1.08265954	      0.93491038	      0.41496252	     26.54287516	     -7.14296429	     -6.21923638	     60.02282307	     60.02282307	      5.66595141	    -12.42872726	      0.55518355	     14.96556486	     -5.52404790	     -9.71848450	     21.66155354	     21.66155354	     11.40297191	     -7.08652927	     -4.91471640	    -10.75839638	      3.03760809	      0.69853238	      4.59828673	    -12.84004581	     -1.63267726	     37.31198810	     45.68516346	      0.00000000	      0.00000000	     14.75704994	    -13.99481572	      2.18744615	     37.21171425	     45.72879452	      0.00000000	      0.00000000
     33.47350000	     -1.68525476	     -4.22439081	      1.89736661	      1.08210614	      0.93578900	      0.41483346	     27.09452252	     -7.03880949	     -6.05513362	     57.87799825	     57.87799825	      5.44998871	    -12.42558851	      0.64385690	     14.08611240	     -5.54367536	    -10.01511920	     20.95919038	     20.95919038	     11.51615214	     -7.03430206	     -4.93116647	    -10.96854643	      3.06743398	      0.69624747	      2.82896351	    -13.18616052	     -1.67748350	     35.90300122	     45.73380795	      0.00000000	      0.00000000	     15.92050798	    -14.26210635	      2.03591347	     37.98723719	     45.77565864	      0.00000000	      0.00000000
     33.48700000	     -1.73252243	     -4.31820556	      1.52110414	      1.08148971	      0.93630793	      0.41472891	     27.66695056	     -6.90816656	     -6.02336975	     55.55915289	     55.55915289	      5.13990311	    -12.32246903	      0.69557388	     13.43761001	     -5.61967860	    -10.26448746	     20.43354230	     20.43354230	     11.63303321	     -7.05177230	     -5.08797730	    -11.03287969	      3.16311920	      0.65788008	      1.11409399	    -13.51626973	     -1.85680499	     34.44033359	     45.79346273	      0.00000000	      0.00000000	     16.97717313	    -14.52606474	      1.89076570	     38.93255829	     45.81957952	      0.00000000	      0.00000000
     33.50050000	     -1.89415193	     -4.33144870	      1.18303989	      1.08081799	      0.93648181	      0.41466279	     28.26491751	     -6.88288676	     -6.07043479	     53.09507417	     53.09507417	      4.88222559	    -12.09468113	      0.98200397	     13.03683091	     -5.62510412	    -10.50569859	     20.12415245	     20.12415245	     11.80386352	     -7.09667423	     -5.19569039	    -10.93695411	      3.16991106	      0.15728491	     -0.47162442	    -13.76328858	     -1.97280771	     33.50888023	     45.82748277	      0.00000000	      0.00000000	     17.85708309	    -15.17210541	      1.71388071	     39.49949326	     45.85657145	      0.00000000	      0.00000000
     33.51400000	     -1.82288706	     -4.42102251	      0.78945110	      1.08040469	      0.93714676	      0.41468465	     28.36249718	     -6.68080069	     -6.13611313	     50.21273194	     50.21273194	      4.48531595	    -11.94631622	      1.18246624	     12.14834316	     -5.68405629	    -10.81918813	     19.39971808	     19.39971808	     11.85754112	     -7.02508874	     -5.39971197	    -11.14876623	      3.29295724	      0.49412835	     -2.10904137	    -14.14528954	     -2.29243827	     31.81724101	     45.90804263	      0.00000000	      0.00000000	     18.90424167	    -15.16199632	      1.56806869	     40.88536042	     45.90121246	      0.00000000	      0.00000000
     33.52750000	     -1.87918589	     -4.38534592	      0.39593120	      1.07993252	      0.93738550	      0.41483318	     28.53630790	     -6.61599859	     -6.26081715	     47.22464820	     47.22464820	      4.08582105	    -11.61943574	      1.36918545	     11.51582729	     -5.63172648	    -11.17017635	     18.88491624	     18.88491624	     11.89833406	     -7.01078117	     -5.71517332	    -11.20603674	      3.24192683	      0.47202233	     -3.52203678	    -14.40197087	     -2.72997875	     30.35823513	     45.99015908	      0.00000000	      0.00000000	     19.74148082	    -15.52056920	      1.38354035	     42.10803537	     45.94600639	      0.00000000	      0.00000000
     33.54100000	     -2.09717622	     -4.04372504	     -0.02235643	      1.07931551	      0.93694421	      0.41509671	     28.97596734	     -6.81171777	     -6.18045626	     44.36583533	     44.36583533	      3.82724528	    -11.19615037	      1.80128320	     11.31884124	     -5.30591767	    -11.56178205	     18.87542405	     18.87542405	     12.08784731	     -7.13658139	     -5.89769979	    -11.02088755	      2.78221481	     -0.08148419	     -4.70984031	    -14.69543167	     -2.87189835	     29.75705345	     46.01607408	      0.00000000	      0.00000000	     20.54125079	    -16.24286596	      1.19140381	     42.56353314	     45.97986195	      0.00000000	      0.00000000
     33.55450000	     -1.99346050	     -4.23263996	     -0.39615700	      1.07918110	      0.93757545	      0.41556511	     28.50481688	     -6.48743892	     -6.76730321	     40.66477879	     40.66477879	      3.37476243	    -10.30760896	      1.96055511	     10.26740766	     -5.46556728	    -11.95371814	     17.89163998	     17.89163998	     12.05005026	     -6.86304857	     -6.22978265	    -11.34365039	      3.02084615	      0.40260925	     -6.18077244	    -14.93307444	     -3.44067137	     28.24590454	     46.11283372	      0.00000000	      0.00000000	     21.25048220	    -16.27342004	      0.93386863	     44.41273444	     46.03563560	      0.00000000	      0.00000000
     33.56800000	     -2.01746811	     -4.06217845	     -0.80882124	      1.07900050	      0.93756231	      0.41612449	     28.24929629	     -6.47514351	     -7.15066029	     37.10814029	     37.10814029	      2.98623285	     -9.18667656	      1.81818658	      9.53379641	     -5.28478430	    -12.45654655	     17.27072246	     17.27072246	     11.97909664	     -6.70517747	     -6.84284476	    -11.46539004	      2.82484597	      0.47740766	     -7.30348632	    -15.07461513	     -4.30970418	     27.04095562	     46.22509643	      0.00000000	      0.00000000	     21.71414196	    -16.64630619	      0.57487219	     46.35483192	     46.10172525	      0.00000000	      0.00000000
     33.58150000	     -2.18179363	     -3.84794871	     -1.21974493	      1.07885172	      0.93718015	      0.41693810	     27.94748983	     -6.42121282	     -7.59212789	     33.20326466	     33.20326466	      1.62676546	     -8.21784361	     -0.99802182	      8.87971550	     -5.00770916	    -12.74367331	     16.42501772	     16.42501772	     11.20660653	     -7.19146386	     -8.83111922	    -11.42471392	      2.53998873	      0.02963861	     -7.17740891	    -14.18624127	    -12.23423449	     24.31767961	     46.97511469	      0.00000000	      0.00000000	     21.29689498	    -17.28398682	     -0.72662137	     49.55624340	     46.38085324	      0.00000000	      0.00000000
     33.59500000	     -2.20582437	     -3.66977616	     -1.62085358	      1.07885100	      0.93696670	      0.41792811	     27.49656078	     -6.31331208	     -8.16511161	     29.56296666	     29.56296666	      1.55777820	     -6.26921655	     -0.37780245	      8.17856487	     -4.84137932	    -13.26265444	     15.90760977	     15.90760977	     11.40346903	     -6.90970999	     -8.99556687	    -11.51187763	      2.27932723	      0.19151861	     -8.40876484	    -14.41221553	    -12.49227639	     24.11391023	     46.98967866	      0.00000000	      0.00000000	     21.92271932	    -17.54301234	     -0.92557223	     50.75074421	     46.42615853	      0.00000000	      0.00000000
     33.60850000	     -2.32796059	     -3.48544365	     -2.00113808	      1.07892845	      0.93653784	      0.41902501	     27.05229965	     -6.14040693	     -8.68429078	     25.95031130	     25.95031130	      1.46570824	     -4.13444492	      0.34158565	      7.60604457	     -4.67202039	    -13.71862228	     15.41343810	     15.41343810	     11.52579108	     -6.64476244	     -9.25520703	    -11.47738805	      2.08503194	      0.24560386	     -9.55669713	    -14.57779480	    -12.75845628	     24.05831696	     46.99935111	      0.00000000	      0.00000000	     22.39108748	    -17.82148721	     -1.19976518	     51.98420256	     46.47558076	      0.00000000	      0.00000000
     33.62200000	     -2.37986656	     -3.19947209	     -2.38802775	      1.07923735	      0.93603326	      0.42027059	     26.57697924	     -6.10574363	     -9.41538898	     22.72459130	     22.72459130	      1.64885668	     -1.39928893	      1.37712150	      6.86695738	     -4.38228202	    -14.28962530	     14.76675202	     14.76675202	     11.54929441	     -6.27544261	     -9.81107123	    -11.52130973	      1.73371162	      0.35304453	    -10.72597744	    -14.64064376	    -13.23900207	     24.49086669	     46.99975222	      0.00000000	      0.00000000	     22.57130324	    -18.08313024	     -1.70315396	     53.93409255	     46.55591253	      0.00000000	      0.00000000
